<svg width="350" height="347" viewBox="0 0 350 347" fill="none" xmlns="http://www.w3.org/2000/svg">
<path fill-rule="evenodd" clip-rule="evenodd" d="M295.26 0C323.978 0.000115456 347.26 23.2814 347.26 52V113.731C347.26 133.761 335.756 152.011 317.685 160.648L261.6 187.455L197.106 231.146L196.75 231.389L137.137 265.806V294.979C137.137 323.697 113.855 346.978 85.1367 346.979H52C23.2812 346.979 0 323.697 0 294.979V52C0.000221628 23.2814 23.2813 0 52 0H295.26ZM52 24C36.5362 24 24.0002 36.5362 24 52V294.979C24 310.443 36.536 322.979 52 322.979H85.1367C100.601 322.978 113.137 310.442 113.137 294.979V124.927C113.137 99.121 142.114 83.929 163.339 98.6074L256.718 163.187L307.335 138.994C317.065 134.343 323.26 124.516 323.26 113.731V52C323.26 36.5363 310.724 24.0001 295.26 24H52ZM149.688 118.347C144.381 114.677 137.137 118.475 137.137 124.927V238.093L184.008 211.031L234.371 176.912L149.688 118.347Z" fill="url(#paint0_linear_11_2)"/>
<path d="M349.8 291.025C349.8 320.459 326.875 345.635 297.003 345.635H135.762L151.433 330.236C157.043 324.724 164.594 321.635 172.459 321.635H297.003C311.99 321.635 325.431 308.656 325.432 291.025V193.441C325.432 185.665 328.452 178.192 333.854 172.599L349.715 156.179H349.8V291.025Z" fill="url(#paint1_linear_11_2)"/>
<defs>
<linearGradient id="paint0_linear_11_2" x1="25.0116" y1="19.4634" x2="349.8" y2="346.979" gradientUnits="userSpaceOnUse">
<stop stop-color="#4F7BCA"/>
<stop offset="0.346154" stop-color="#4E9EBE"/>
<stop offset="0.653846" stop-color="#E893B0"/>
<stop offset="1" stop-color="#E893B0"/>
</linearGradient>
<linearGradient id="paint1_linear_11_2" x1="25.0116" y1="19.4634" x2="349.8" y2="346.979" gradientUnits="userSpaceOnUse">
<stop stop-color="#4F7BCA"/>
<stop offset="0.346154" stop-color="#4E9EBE"/>
<stop offset="0.653846" stop-color="#E893B0"/>
<stop offset="1" stop-color="#E893B0"/>
</linearGradient>
</defs>
</svg>
